<?xml version="1.0" standalone="no"?>
<!DOCTYPE svg PUBLIC "-//W3C//DTD SVG 1.1//EN" "http://www.w3.org/Graphics/SVG/1.1/DTD/svg11.dtd" >
<svg xmlns="http://www.w3.org/2000/svg">
<metadata>Generated by IcoMoon</metadata>
<defs>
<font id="icomoon" horiz-adv-x="512">
<font-face units-per-em="512" ascent="480" descent="-32" />
<missing-glyph horiz-adv-x="512" />
<glyph unicode="&#x20;" d="" horiz-adv-x="256" />
<glyph unicode="&#xe600;" d="M124 243l1 5q5 20 9 39t0 20q-1 2-1.5 1.5t-1.5 0.5q-4-1-8 0.5t-11 7.5q-4 5-7 10t-4 13q0 7 3 15t8 12q3 4 6 6.5t7 5.5q4 1 8.5 2.5t8.5 0.5q6 1 11-1t9-5q6-4 9.5-9.5t4.5-14.5q2-6 0.5-14t-6.5-13q-2-5-3.5-8.5t-3.5-9.5q-1-4-2-10.5t-2-11.5q0-1-1.5-27.5t-4.5-48.5q-3-15-5.5-24t-3.5-11q0-2-1-2.5t-1-2.5v1l-36-102q-2-4-4.5-10t-5.5-10q-3-6-7-10t-7-8l-7-5 49 218zM142 366q-7-1-13.5-6t-7.5-14q-1-4 0.5-9t4.5-8q3-4 7-5.5t8-2.5q3 1 5.5 1.5t4.5 3.5q5 2 7.5 8.5t2.5 12.5q-1 7-3.5 11t-6.5 6v-1q-3 2-5 2t-4 1v0zM144 379q4 1 9-1.5t8-3.5q6-5 9.5-10.5t4.5-12.5q1-6-0.5-13t-5.5-11q-2-5-3.5-9t-3.5-10q-1-5-2.5-11t-1.5-11q0-1-2-27.5t-4-47.5q-3-19-6.5-27.5t-4.5-11.5l-36-100q-2-4-4.5-9.5t-5.5-9.5q-3-6-6.5-10t-6.5-9l46 210q7 25 10.5 43.5t-0.5 22.5q-5 4-8.5 2.5t-12.5 8.5q-5 3-7.5 9.5t-2.5 11.5q1 8 3 13.5t7 11.5q3 4 10.5 8.5t16.5 3.5v0zM140 319q3-1 6 0.5t6 1.5q5 5 8 11t3 14q0 6-3 12t-9 8q-3 2-5 2t-4 1l-8-2t-7-5q-4-2-6-6.5t-3-7.5q-2-7-0.5-11.5t5.5-9.5q3-3 7.5-6t9.5-2v0zM144 384q-5 1-9.5-0.5t-9.5-2.5q-4-3-7.5-5.5t-6.5-7.5q-3-2-5-6t-4-7q-1-5-1.5-8.5t-0.5-8.5q0-6 3-13.5t8-10.5q7-7 11-8l8-2q0 1 1 0.5t1 0.5v-5t-1-14q-1-3-2-8t-2-9q-1-6-2.5-11t-3.5-12v-1l-46-209-4-16 13 10 8 8t7 10q3 4 5.5 10t5.5 10v0l36 101t1 1l4.5 13.5t4.5 25.5q3 19 4.5 45t1.5 29q2 13 4.5 22t6.5 16q4 5 5.5 14t0.5 16q-2 9-5.5 15t-10.5 10q-4 4-9 6.5t-10 1.5v0zM141 320q-4 1-8 2.5t-7 6.5q-4 3-5 8.5t0 9.5q2 9 9 14.5t14 6.5v-1q1 1 3 0.5t4-0.5v0q7-4 8.5-9t2.5-9q1-6-2-13t-8-9v0q-4-5-6-5.5t-5-1.5v0zM94 129l53 45q0-1 11 19t11 21q2 13-3.5 22.5t-5.5 10.5q0-1-22.5-15.5t-23.5-17.5l-20-84v-1zM238 269q1 5 3 9t6 8q3 2 7.5 4.5t9.5 1.5q0 1 0 0.5t0 0.5q-5-1-9.5-2.5t-8.5-5.5q-3-2-5.5-7t-3.5-8q-1-7 1-10t4-7q0 1 1 0l1-1q-4 3-5.5 8t-0.5 9v0zM261 246q-5-1-9.5 1.5t-7.5 3.5q3-2 7.5-4t9.5-1v0zM277 287q-3 4-6 4.5t-7 1.5v-1q4 1 7-0.5t6-3.5q4-4 5.5-8.5t1.5-8.5q0-5-3-12t-8-8q-1-3-5-4t-7-2q3 1 6.5 1.5t7.5 4.5q4 2 6.5 7.5t3.5 9.5q0 6-2 11t-6 9v-1zM325 262q-1 8-7.5 13.5t-16.5 6.5q-2 7-7 13.5t-12 9.5q-5 4-9 5t-9 2q-6-1-11-2t-10-5q-5-2-8.5-6.5t-6.5-7.5q-2-5-5-8l-7-7q-3-2-7.5-6t-9.5-6q-3-3-25.5-15t-39.5-25q-13-9-19.5-15t-9.5-8q-1-2-1.5-2.5t-0.5-1.5l-73-76q-3-6-7-10t-7-10q-3-4-5.5-10t-3.5-10l-4-17 13 10 165 134 4 3q14 11 27.5 22.5t18.5 10.5q0 1 1 0l1-1q1-5 4.5-7.5t12.5-6.5q3 0 6-1.5t6-0.5q6-1 11.5 1.5t10.5 5.5l8 8t6 11l0.5 1t0.5 0q2 1 3-0.5t2-1.5q2-4 4.5-4.5t4.5-1.5q3 1 5.5 1.5t4.5 4.5q2 1 2.5 4.5t-0.5 5.5v0zM313 254q-1-1-2 0.5t-2 1.5q-3 4-7 6t-7 3q0-3-1-4t-2-4q-2-4-5-8.5t-7-6.5q-4-4-9-5l-10-2q-3 1-5.5 0.5t-4.5 2.5q-12 4-13 8t-6 5q0 1-0.5 0.5t-1.5 0.5q-6-1-20-11.5t-33-28.5l-165-133q2 4 4 9t5 9q3 6 6.5 10t7.5 9l72 77q3 2 8.5 8t22.5 19q17 11 40 25t23 13q5 5 9.5 8t8.5 7q4 3 7 7t5 6q3 6 7 9l8 6q4 1 8.5 3t9.5 1q4 1 8-0.5t7-2.5q7-4 11.5-10t5.5-15l3 1q8-1 13.5-5.5t6.5-10.5q1-4-1-6.5t-5-1.5v0zM298 278l-1 1q-2 8-6.5 14.5t-11.5 9.5q-3 3-7.5 3.5t-8.5 1.5l-10-2t-9-4q-4-2-8-6t-6-8-5-7-7-8q-4-2-8.5-6t-9.5-7q-2-2-25-14.5t-40-24.5q-13-9-19-15l-9-9q-1-2-1.5-2t-0.5-1l-73-77q-4-5-7.5-9t-6.5-10q-3-4-5.5-9.5t-3.5-9.5l-6-11 172 142 4 1q16 15 29 25t19 11q0-1 0.5-0.5t0.5-0.5q1 1 1.5-0.5t1.5-1.5q2-4 5-6t12-7q2 0 5-1t5 0q5-1 10.5 1.5t9.5 4.5q5 4 8.5 8t5.5 10q1 0 2 1.5t1 2.5q2 1 4.5-1t4.5-4q1-2 3-2.5t4-1.5q3 1 4.5 1t2.5 3q2 1 2 3.5v3.5q-1 8-7 13t-15 6v-1zM273 254q-2-1-5.5-2.5t-6.5-0.5q-6-1-10 1t-7 5q-1 3-2.5 6t-0.5 9q1 7 7.5 13.5t15.5 5.5q3 1 6-1t6-2q3-2 5-5.5t2-9.5q0-4-2.5-10t-7.5-8v-1zM138 187q-1 1-1.5 0.5t-1.5 0.5q-2 0-4.5 1.5t-4.5 3.5q-2 3-2 5v6t4 8 10 3q0 1 0.5 0.5t1.5 0.5q3-2 5-2.5t4-4.5q2-2 2.5-5t0.5-5q-1-6-5-8.5t-9-3.5v0zM138 212q1-1 1-0.5t1-0.5q4 0 6.5-4t1.5-8-4-6.5-6-3.5q-1 1-1.5 0.5t-1.5 0.5q-4 0-6.5 4t-1.5 8q1 5 4 7t7 3v0zM138 217v1q-6-1-11-4.5t-6-10.5q-1-3 0-6.5t3-5.5q1-4 4-5t6-3q1 1 2 0.5t2 0.5q6-1 10.5 3.5t5.5 9.5 0 7.5-2 6.5q-2 2-4.5 4t-6.5 2q-1 1-1.5 0.5t-1.5 0.5v-1z" />
<glyph unicode="&#xe601;" d="M66-15l-16 16 219 219-219 219 16 15 233-234z" />
<glyph unicode="&#xe602;" d="M328 109q0 7-2 21.5t-4 21.5q-4 12-8.5 17t-9.5 10q-4 1-13.5 5.5t-25.5 9.5q-15 5-29 10t-19 9q-5 2-9 13t-4 15q0 1 0.5 1.5t3.5 4.5q4 3 7 8t7 9q3 7 5.5 13t5.5 13q2 8 3.5 20.5t1.5 24.5q-1 15-4 27.5t-11 24.5q-5 5-10.5 10t-12.5 7q-7 4-15.5 5.5t-17.5 2.5l-1-1q-9 1-17.5-1.5t-15.5-4.5q-7-4-13-8t-10-11q-8-10-11.5-23.5t-3.5-26.5q-1-14 1-25.5t4-21.5q2-5 4.5-12t6.5-12q3-6 6.5-10t6.5-9v0q2 0 3.5-2l1.5-2q2-6-3-15.5t-10-12.5-20-9-29-10q-16-7-25.5-10.5t-12.5-6.5q-5-3-10-9t-8-16q-4-9-5.5-22.5l-2.5-22.5v-4q5-6 36-14.5t127-9.5q95 1 125.5 9.5t34.5 14.5h2v5z" />
<glyph unicode="&#xe603;" d="M326 63l-77 82q12 10 20.5 22.5t15.5 26.5q6 13 9.5 28.5t2.5 30.5q1 31-11 58t-31 47q-21 20-47.5 32t-58.5 12q-30 0-57.5-12t-46.5-32q-21-20-32-47t-12-58q1-30 12-57t32-47q19-21 46.5-32.5t57.5-11.5q12 0 21.5 1.5t20.5 4.5q8 3 17.5 7t17.5 9l79-84 20 20h1zM28 253q-1 25 9 46.5t25 37.5q17 16 38 25.5t47 9.5q23 0 45-9.5t37-25.5q17-16 26-37.5t10-46.5q-1-24-10-45.5t-26-37.5q-15-16-37-25.5t-45-9.5q-26 0-47 9.5t-38 25.5q-15 16-25 37.5t-9 45.5v0z" />
<glyph unicode="&#xe604;" d="M161 125h10l1-40h-12l1 40zM100 101l-8 6 18 34 10-6-20-34zM77 271l-35 20 7 9 33-20-5-9zM111 308l-19 35 8 5 21-34-10-6zM256 270l-6 9 35 20 4-9-33-20zM231 101l-18 34 8 5 20-34-10-5zM284 150l-35 20 6 9 33-20-4-9zM26 229h40l-1-10h-38l-1 10zM266 229h38l1-10h-40l1 10zM46 151l-5 9 33 20 7-9-35-20zM166 387q-34 0-63-13t-52-35q-21-22-34.5-51.5t-12.5-63.5q-1-33 12-63t34-52q23-22 52.5-35t63.5-13q33 0 63 13t51 35q23 22 35.5 51.5t13.5 63.5q-1 34-13.5 63.5t-35.5 51.5q-21 22-51 35t-63 13v0zM165 78q-29 0-56 11.5t-46 31.5q-21 20-32 46.5t-12 56.5q1 30 12 56t31 46q18 20 44.5 31.5t54.5 12.5l1-146q-1-2 0.5-3t2.5-2h3l1.5 0.5t1.5 1.5l73 127q15-9 28-22.5t21-29.5q10-16 14-34t5-38q-1-30-11.5-56.5t-31.5-46.5q-19-20-46-31.5t-57-11.5h-1z" />
<glyph unicode="&#xe605;" d="M203 169q-5-6-3-13l2-7 51-85 5-5.5t10-5.5q6 0 10.5 3l4.5 3 40 57 2 5t2 9q0 7-7 9l-7 2-95 30q1 1-4.5 2t-10.5-4v0 0zM198 211q4-6 11.5-6h7.5l95 27 6.5 3.5t8.5 9.5q1 6-1 10.5l-2 4.5-45 54-3 3t-9 4q-7 1-10.5-4.5l-3.5-5.5-54-85q0 1-2-4t1-11v0 0zM154 244q9 2 11 10l2 8-1 136-1.5 9t-7.5 13q-9 5-12.5 4t-6.5-2l-78-30-4.5-2t-7.5-7q-4-6 0.5-14l4.5-8 83-111 5-4t13-2v0 0zM134 190q0 8-6 12l-6 4-85 43-7 2t-12-1q-3-2-5.5-5.5t-2.5-6.5l-5-68-0.5-6.5t2.5-10.5q3-6 11-4.5l8 1.5 98 21q2 3 6 6t4 13v0 0zM159 153q-6 3-12-0.5l-6-3.5-66-72-4.5-6.5t-2.5-11.5 4.5-7.5 5.5-3.5l66-21 5-0.5t9 0.5q7 2 7.5 9l0.5 7 1 98q0-1-1 4t-7 8v0 0z" />
<glyph unicode="&#xe606;" d="M-1 339h332v-30h-332v30zM-1 239h332v-30h-332v30zM-1 140h332v-30h-332v30z" />
<glyph unicode="&#xe607;" d="M39 7h-6t-5 2l-4 6t-2 8v6q0 4 6.5 10t30.5 13q7 1 14 2.5t14 3.5q7 1 13 2t11 1v70q0 7 3 12.5t10 9.5v46q-14-1-24.5-1.5t-15.5-0.5h-4q-4 0-8 1.5t-7 3.5q-3 3-5.5 6.5t-4.5 7.5v0q0 1-8 40t-11 57q-6 17-19.5 54.5t-13.5 38.5v0q-2 5-1 10t3 10q3 4 7 7.5t9 5.5l8 1q2 0 3.5 0.5t3.5 0.5q5 0 9-1.5t7-3.5q4-3 6.5-6.5t3.5-7.5q1-3 14.5-44.5t15.5-49.5q1-2 2.5-8.5t3.5-16.5q16 6 36.5 11t40.5 8 36.5 5 25.5 2v0q2 0 5.5-1t6.5-2q6-2 9.5-3t3.5-3q1-4 0.5-9.5t-3.5-9.5q-2-4-4.5-5t-5.5-2q-6-1-22-2t-35-1q-17 0-31-1t-18-2q-2 0-5.5-1t-7.5-2q-6-1-13.5-2t-14.5-3l2-10t2-11q21 2 43.5 2.5t27.5 0.5v0q9 0 52-2t46-2q6 0 10.5-2t8.5-6q3-3 5-8t2-10v-9q0-6-2-10.5t-6-8.5q-3-3-8-5t-10-2v0 0l-15.5 0.5t-33.5 2.5q7-9 14-22t15-31q7-17 15.5-38.5t17.5-47.5h9q8 0 12.5 1t5.5 2h3q3 0 5.5-2t3.5-5q1-4-0.5-7t-4.5-5q-5-2-8.5-3t-4.5-2l-4-2t-4-1v0h-7q-3 0-5 1t-6 2q-3 0-5 1.5t-3 4.5v7q-2 7-7.5 20t-10.5 26q-6 14-11.5 25.5t-8.5 17.5q-1 2-2 5t-4 6q-5 10-15 28t-17 18h-3q-11 2-17 2.5t-9 2.5q-4 0-9.5-1t-12.5-1v-48q6-3 9-8.5t3-12.5v-70l12-2t13-2q7-2 14-3.5t13-3.5q26-7 31.5-13t5.5-10v-6q0-7-9.5-11t-25.5-4h-168q-1-1-3-1h-4z" />
<glyph unicode="&#xe608;" d="M265 349q-13 5-27 5.5t-27-2.5-24.5-9-20.5-15q-10 9-22 15t-25 9q-12 3-26 2t-27-6q-19-7-33-20t-22-30-9-36 5-38q14-37 86.5-95l72.5-58v1q4 3 26.5 20t49.5 41q26 23 50 48.5t31 43.5q7 19 6 38t-9 36-22 30-33 20v0z" />
<glyph unicode="&#xe609;" d="M0 45v0zM118 197q18-1 32 7t23 23 13 34.5 0 42.5q-2 23-11.5 43t-22.5 34q-14 15-30 24t-33 9q-17 1-31.5-7t-22.5-22q-11-14-14-33.5t-1-42.5q4-23 12.5-43t22.5-35q12-16 29-25t33-9h1zM512 352l-1 43q1 18-6 33t-18 27q-13 12-27.5 18.5t-33.5 6.5h-341q-19 0-33.5-6.5t-26.5-17.5q-11-11-18-26.5t-7-32.5q10 9 23.5 17.5t26.5 15.5q16 6 30.5 9.5t31.5 3.5h106t72 0l-39-33h-57q15-6 25-16.5t19-23.5q6-14 10.5-30t3.5-33q1-14-3.5-27t-9.5-25q-8-12-17-22t-21-19q-10-8-17-14.5t-10-11.5q-5-6-5.5-12t-1.5-13q1-6 5.5-14t12.5-16q6-8 14.5-15t13.5-11q19-12 30.5-24.5t19.5-26.5q6-13 10-29t3-35q1-6-0.5-12t-1.5-12h152q19 0 33.5 6.5t27.5 18.5q11 12 18 27t6 33l1 267h-97l1-96h-33l1 96h-97l1 32h95l1 96h31l1-96h96zM93 98h29q-4 4-8.5 9.5t-7.5 11.5q-4 7-5.5 13.5t-2.5 14.5q1 4 1 8.5t3 8.5q0 4 2 8.5t4 8.5h-15q-15 0-27.5 2t-24.5 7q-11 4-22 10t-19 13l-1-135q11 5 21.5 8.5t23.5 5.5q11 3 23.5 4.5t24.5 1.5h1zM1 37q1 2-0.5 3.5t-0.5 4.5q-1-3 0.5-5t0.5-3v0zM227 3q-4 11-9.5 19.5t-15.5 16.5q-9 8-21 16t-26 19q-6 1-10.5 2.5t-10.5 2.5q-5 0-11 0.5t-11 0.5q-18 0-33.5-3t-30.5-9q-13-6-25.5-14.5t-20.5-18.5q2-14 10-26.5t18-21.5q12-9 25.5-14t29.5-5h143q2 4 1.5 8.5t0.5 9.5q-1 4-1.5 9t-2.5 8h1z" />
<glyph unicode="&#xe60a;" d="M288-32h-96v256h-64v88h64v51q0 28 4.5 49.5t15.5 36.5q12 15 32 23t52 8h70v-88h-44q-13 0-20-2.5t-11-6.5q-3-5-4-11.5t-1-14.5v-45h80l-8-88h-70v-256z" />
<glyph unicode="&#xe60b;" d="M427 480h-342q-18 0-33-6.5t-27-18.5-18.5-27-6.5-33v-342q0-18 6.5-33t18.5-27 27-18.5 33-6.5h342q18 0 33 6.5t27 18.5 18.5 27 6.5 33v342q0 18-6.5 33t-18.5 27-27 18.5-33 6.5v0zM163 256h184q3-7 4-15.5t1-16.5q0-20-7.5-38t-20.5-31q-14-13-31.5-21t-38.5-8q-20 0-37.5 8t-30.5 21-20.5 31-7.5 38q0 8 1.5 16.5t3.5 15.5v0zM448 256v-192q0-7-2.5-12.5t-6.5-10.5q-5-4-10.5-6.5t-12.5-2.5h-320q-7 0-12.5 2.5t-10.5 6.5q-4 5-6.5 10.5t-2.5 12.5v192h50q-2-7-3-15.5t-1-16.5q0-30 11.5-56.5t31.5-46.5 46.5-31.5 56.5-11.5 56.5 11.5 46.5 31.5 31.5 46.5 11.5 56.5q0 8-1 16.5t-3 15.5h50zM448 368q0-7-5-11.5t-11-4.5h-32q-6 0-11 4.5t-5 11.5v32q0 7 5 11.5t11 4.5h32q6 0 11-4.5t5-11.5v-32z" />
<glyph unicode="&#xe60c;" d="M427 480h-342q-18 0-33-6.5t-27-18.5-18.5-27-6.5-33v-341q0-18 6.5-33.5t18.5-27.5 27-18.5 33-6.5h341q17 0 32.5 6.5t26.5 18.5q12 12 18.5 27t6.5 33v342q1 18-5.5 33t-17.5 27q-12 12-27 18.5t-33 6.5v0zM282 138q-9 0-16 2.5t-12 5.5q-6 3-11.5 7t-12.5 9q-3-20-7.5-39t-11.5-36-16.5-31-23.5-24q-4 30-2 56.5t8 51.5q5 24 11.5 47.5t11.5 47.5q-8 14-8 32.5t7 34.5 20 24.5 31 1.5q21-8 17-31t-12-48-9-46.5 26-26.5q28-5 47 15t27 50 5 62-20 49q-26 26-59.5 28t-61.5-13q-29-16-46.5-44.5t-11.5-64.5q1-9 5.5-15.5t7.5-13.5q4-6 4-14.5t-7-20.5q-17 3-27.5 11t-16.5 19q-7 12-9 26.5t-2 31.5q1 27 12.5 50t29.5 40 41 27.5 47 12.5q30 4 58-1.5t51-18.5q22-14 37.5-35t19.5-51-2.5-62-22.5-55q-15-26-40-40t-56-12v1z" />
<glyph unicode="&#xe60d;" d="M512 382q-7-3-14.5-5.5t-14.5-4.5q-8-2-15.5-3.5t-16.5-2.5q9 5 16 11.5t13 13.5 10.5 15.5 7.5 17.5q-8-5-16-9t-17-7q-8-3-17-5.5t-18-4.5q-7 8-15.5 14.5t-18.5 10.5q-9 4-19.5 6.5t-21.5 2.5q-21 0-40.5-8t-33.5-23q-15-14-23-33t-8-42q0-6 1-12l2-12q-33 2-64 10.5t-58 22.5q-28 15-52 34.5t-44 43.5q-3-6-6-12.5t-5-12.5l-2-14t-1-14q0-14 3.5-26.5t9.5-24.5q6-11 14.5-20.5t18.5-16.5q-6 0-12.5 1t-12.5 2q-6 2-11.5 4.5t-11.5 5.5v-2q0-19 6.5-36t18.5-31q11-13 26.5-22.5t33.5-12.5q-7-1-13.5-2t-13.5-1h-10t-9 1q4-15 13.5-28.5t22.5-23.5q13-9 28.5-15t32.5-6q-13-11-28-19.5t-32-14.5q-17-5-34.5-8t-36.5-3h-13t-13 1q18-11 37-20t39-15q21-6 42.5-9.5t43.5-3.5q73 0 128.5 27.5t93.5 70.5 57.5 96 19.5 106v12q8 7 15 13.5t14 13.5 13 14.5 11 14.5v0 0z" />
<glyph unicode="&#xe60e;" d="M416 416h-320c-52.8 0-96-43.2-96-96v-192c0-52.8 43.2-96 96-96h320c52.8 0 96 43.2 96 96v192c0 52.8-43.2 96-96 96zM192 96v256l160-128-160-128z" />
<glyph unicode="&#xe60f;" d="M426 480h-340c-47.3 0-86-38.7-86-86v-340c0-47.3 38.7-86 86-86h340c47.3 0 86 38.7 86 86v340c0 47.3-38.7 86-86 86zM192 64h-64v224h64v-224zM160 320c-17.673 0-32 14.327-32 32s14.327 32 32 32 32-14.327 32-32-14.327-32-32-32zM416 64h-64v128c0 17.673-14.327 32-32 32s-32-14.327-32-32v-128h-64v224h64v-39.736c13.199 18.132 33.376 39.736 56 39.736 39.765 0 72-35.817 72-80v-144z" />
<glyph unicode="&#xe610;" d="M426 480h-340c-47.3 0-86-38.7-86-86v-340c0-47.3 38.7-86 86-86h340c47.3 0 86 38.7 86 86v340c0 47.3-38.7 86-86 86zM256 320c-17.645 0-32-14.355-32-32v-128c0-52.936-43.065-96-96-96s-96 43.064-96 96v64h64v-64c0-17.645 14.355-32 32-32s32 14.355 32 32v128c0 52.935 43.065 96 96 96s96-43.065 96-89v-31l-41-12-23 12v31c0 10.645-14.355 25-32 25zM480 160c0-52.936-43.065-96-96-96s-96 43.064-96 103v62l23-12 41 12v-62c0-24.645 14.355-39 32-39s32 14.355 32 32v64h64v-64z" />
<glyph unicode="&#xe611;" d="M426.688 480h-341.345c-46.938 0-85.343-38.408-85.343-85.346v-341.312c0-46.965 38.405-85.342 85.343-85.342h341.345c46.937 0 85.312 38.376 85.312 85.342v341.312c0 46.938-38.375 85.346-85.312 85.346zM480 53.342c0-14.167-5.57-27.541-15.685-37.658-10.111-10.114-23.474-15.684-37.627-15.684h-170.688v224h-224v170.654c0 14.154 5.575 27.525 15.698 37.648s23.492 15.698 37.645 15.698h170.657v-224h224v-170.658z" />
<glyph unicode="&#xe612;" d="M430.955 480h-344.757c-47.413 0-86.198-38.784-86.198-86.197v-344.725c0-47.446 38.784-86.197 86.198-86.197h344.757c47.397 0 86.165 38.752 86.165 86.197v344.725c0 47.397-38.768 86.197-86.165 86.197v0zM369.514 63.541c-15.223-7.159-29.055-12.217-41.418-15.126-12.363-2.877-25.743-4.315-40.093-4.315-16.322 0-25.937 2.053-38.477 6.157-12.524 4.137-23.238 10.036-32.061 17.615-8.872 7.644-14.996 15.756-18.423 24.337s-5.123 21.056-5.123 37.378v125.143h-48.48v50.532c14.011 4.541 30.268 11.070 40.239 19.57 10.019 8.517 18.035 18.714 24.078 30.639 6.060 11.894 10.23 27.084 12.508 45.49h50.759v-82.546h82.497v-63.686h-82.513v-91.498c0-20.701-0.274-32.643 1.923-38.51 2.182-5.834 7.644-11.894 13.591-15.401 7.902-4.735 16.919-7.094 27.084-7.094 18.067 0 36.053 5.866 53.91 17.615v-56.301z" />
<glyph unicode="&#xe613;" d="M502.891 345.267v0c0 0-1.642 0 0 0-4.916 4.907-9.832 9.809-14.747 13.084-14.747 8.177-34.41 6.539-47.52-3.275h-1.637c-1.642 0-1.642-1.633-3.279-1.633-4.916 6.54-9.832 11.447-16.384 14.716-22.942 11.447-50.799 3.269-62.267-19.623-4.916-8.177-4.916-16.353-4.916-24.531l-65.541-29.433-29.495 1.638-18.026 22.893-11.469 57.233c16.384 9.814 27.852 29.433 26.215 52.33-1.637 21.256-13.111 39.247-27.857 47.418-6.553 3.275-14.747 4.907-21.3 3.275-26.215-1.637-45.879-26.168-42.605-57.238 1.642-21.255 13.111-39.247 27.857-47.423 4.916-1.632 8.195-1.632 13.111-3.269l6.553-111.195-196.629-166.796c-3.279-3.275-3.279-6.545-1.637-11.447 0-1.637 1.637-1.637 3.274-1.637 1.642-1.637 4.916-1.637 8.194 0l190.077 124.279 8.19-225.666c0-3.269 1.642-4.907 4.916-6.539 1.642 0 1.642-1.637 3.279-1.637 4.916 0 8.195 3.269 8.195 8.177l22.936 255.102 103.23 63.772c3.279-4.907 8.195-9.809 14.747-13.079 22.942-11.446 50.799-3.275 62.267 19.624 3.279 8.172 4.916 16.349 4.916 22.893 9.832 14.716 31.131 21.255 47.521 11.446-1.642 0 0 0 1.637-1.637l4.916-1.632 3.279 3.269c1.637 1.632 0 4.902 0 6.54v0zM211.221 389.42c-3.274 0-8.19 0-11.469 3.269-11.469 4.907-18.026 16.353-19.663 31.070-1.637 19.623 9.832 37.609 24.578 37.609 4.916 0 8.195 0 11.469-3.269 11.474-4.907 18.026-16.353 19.663-31.070 1.642-19.624-9.832-35.977-24.578-37.609v0zM248.911 245.518c-3.279-6.544-11.469-9.814-18.026-6.544-6.553 3.269-9.832 11.447-6.553 17.991 3.279 6.54 11.469 9.809 18.026 6.54 6.553-3.269 9.832-11.447 6.553-17.986v0zM422.598 312.56c-6.553-13.079-22.937-17.986-37.684-11.447-13.111 6.545-18.026 22.893-11.474 37.614 6.558 13.079 22.942 17.986 36.052 11.447 14.747-8.177 19.663-24.53 13.105-37.615v0z" />
<glyph unicode="&#xe614;" d="M463.221 397.039c-6.092 3.557-11.676 6.606-17.261 8.639-15.738 4.065-34.015-2.033-44.168-14.737l-1.523-0.508c-1.523-0.508-1.015-2.032-2.538-2.541-6.092 5.082-12.185 8.639-19.292 10.163-24.369 5.082-48.738-9.147-53.815-34.048-2.538-9.147-0.507-16.77 1.523-24.392l-54.83-43.703-14.215-3.049v1.017l-17.769 22.36-11.169 56.408c16.246 9.655 27.415 28.966 25.892 51.834-1.523 20.835-12.692 38.622-27.415 46.752-6.6 3.049-14.723 4.574-20.815 3.049-25.892-1.524-45.184-25.917-42.137-56.408 1.523-20.835 12.692-38.621 27.415-46.752 4.569-1.525 8.123-1.525 12.692-3.049l6.6-109.766 1.016-8.639-4.061-5.082-144.69-205.812c-2.031-4.065-1.523-7.115 1.523-11.18 0.507-1.524 2.031-1.017 3.554-0.508 2.031-1.017 5.077-0.508 7.615 2.033l139.613 153.977 7.107-201.238c0-3.049 1.523-4.574 4.569-6.606 1.523 0 1.523-1.524 3.046-1.524 4.569 0 8.123 3.049 8.123 8.131l22.338 248.498v0.508l1.523 1.524 81.737 85.374c4.062-4.065 10.154-7.115 17.261-8.639 24.369-5.082 48.738 9.147 53.815 34.048 1.015 8.639 0.507 16.77-1.015 22.868 5.584 16.262 24.369 27.95 42.137 22.36-1.523-0.508 0 0 2.031-1.017l5.077-0.508 2.031 4.065c1.523 2.033-1.015 4.573-1.523 6.098v0zM212.425 386.368c-3.046 0-8.123 0-11.169 3.049-11.169 4.573-17.769 16.261-19.292 30.49-1.523 19.31 9.646 37.097 24.369 37.097 4.569 0 8.123 0 11.169-3.049 11.169-4.574 17.769-16.262 19.292-30.49 1.523-19.311-10.154-35.572-24.369-37.097v0zM248.978 244.586c-3.046-6.607-11.169-9.655-17.769-6.607s-9.646 11.18-6.6 17.786c3.046 6.607 11.169 9.655 17.769 6.607 6.6-3.557 9.646-11.688 6.6-17.786v0zM395.699 346.221c-3.046-14.229-17.261-22.868-33-20.327-14.215 3.049-22.846 17.278-20.308 33.031 3.046 14.229 17.261 22.868 30.969 19.819 16.753-4.066 25.384-18.295 22.338-32.524v0z" />
<glyph unicode="&#xe615;" d="M390.406 470.746c-6.589 1.011-13.179 2.023-19.262 1.517-16.22-2.022-30.919-14.662-35.481-29.83l-1.521-1.011c-1.521-1.011-0.507-2.023-1.521-3.034-7.603 2.022-14.192 3.034-21.289 2.022-24.837-4.55-41.564-26.796-37.002-51.57 1.014-9.101 5.575-15.673 10.644-22.246l-33.961-60.671-2.028-1.517-9.631 12.64-11.151 56.12c16.22 9.606 27.371 28.818 25.851 51.57-1.52 20.729-12.672 38.425-27.371 46.514-6.589 3.034-14.7 4.55-20.782 3.034-25.851-1.517-45.113-25.785-42.071-56.12 1.52-20.729 12.672-38.425 27.371-46.514 4.562-1.517 8.11-1.517 12.672-3.034l6.589-109.207 1.52-22.751-1.52-2.023-56.77-244.2c-0.507-4.55 1.014-7.079 5.576-10.112 1.014-1.517 2.028-0.505 3.548 0.505 2.028-0.505 4.562 1.517 6.589 4.55l47.14 127.914 4.562-130.948c0-3.034 1.52-4.55 4.562-6.572 1.52 0 1.52-1.517 3.042-1.517 4.562 0 8.11 3.034 8.11 8.089l21.796 244.2 6.589 16.179 43.591 109.713c5.575-2.023 12.165-3.034 19.262-1.517 24.837 4.55 41.564 26.796 37.002 51.57-2.027 8.089-5.575 15.673-9.63 20.729-1.014 17.19 12.165 34.38 30.413 36.403-1.521-1.011 0 0 2.027-0.506l4.562 1.517 0.507 4.55c1.521 2.528-1.521 4.045-2.534 5.562v0zM211.477 385.807c-3.042 0-8.11 0-11.151 3.034-11.151 4.55-17.741 16.179-19.262 30.335-1.52 19.212 9.631 36.908 24.33 36.908 4.562 0 8.11 0 11.151-3.034 11.151-4.55 17.741-16.179 19.262-30.336 1.52-19.212-10.137-35.392-24.33-36.908v0zM247.973 244.747c-3.042-6.572-11.151-9.606-17.741-6.572s-9.631 11.123-6.589 17.696c3.042 6.572 11.151 9.606 17.741 6.572 6.589-3.539 9.631-11.628 6.589-17.695v0zM324.005 367.606c-14.192-2.528-27.372 7.584-30.919 22.751-2.534 14.157 7.603 27.302 21.289 29.83 16.22 2.022 29.906-7.584 31.933-21.74 3.041-13.651-7.096-27.302-22.303-30.841v0z" />
<glyph unicode="&#xe616;" d="M511.749 210.183l-511.95 0.050v27.635h511.899l0.050-27.685zM242.183 480h27.685v-511.899h-27.685v511.899z" />
<glyph unicode="&#xe617;" d="M490.447-42.376l-490.175 490.243 26.468 26.469 490.175-490.175-26.469-26.536zM0.456-15.713l490.171 490.171 26.51-26.51-490.171-490.171-26.51 26.51z" />
<glyph unicode="&#xe618;" d="M517.334 139.292l-17.618-17.692-241.869 242.815-240.087-242.815-17.689 17.764 259.558 258.788 257.704-258.86z" />
<glyph unicode="&#xe619;" d="M376.665 479.717l17.435-17.514-238.389-239.404 238.389-237.709-17.435-17.514-253.996 256.918 253.996 255.223z" />
<glyph unicode="&#xe61a;" d="M512.214 344.548l-17.618 17.692-241.869-242.815-240.087 242.815-17.689-17.764 259.558-258.788 257.704 258.86z" />
</font>
</defs>
</svg>
